# xmcd
#
# Track frame offsets: 
#        150
#        12472
#        26027
#        39682
#        49922
#        69350
#        84622
#        101355
#        111022
#        124177
#        140737
#        152000
#        165715
#        181750
#
# Disc length: 2602 seconds
#
# Revision: 0
# Processed by: cddbd v1.5.1PL0 Copyright (c) Steve Scherf et al.
# Submitted via: ExactAudioCopy v0.95a5
#
DISCID=b90a280e
DTITLE=The High Strung Band (Reno) - High Strung
DYEAR=1991
DGENRE=Bluegrass
TTITLE0=White Freightliner (T. Van Zandt)
TTITLE1=It Doesn't Matter Anymore (P. Anka)
TTITLE2=Raised By The Railroad Line (P. Craft)
TTITLE3=Shenandoah Breakdown (K. Adelman and B. Ryan)
TTITLE4=One Way Track (R. Skaggs and W. Golding)
TTITLE5=Deal With The Changes In Our Lives (D. Steiner)
TTITLE6=Looking For The Time - Working Girl (N. Griffith)
TTITLE7=Never Again (Unknown)
TTITLE8=Bells Of St. Mary (E. Adams)
TTITLE9=If I Needed You (T. Van Zandt)
TTITLE10=High Strung (M. Smith)
TTITLE11=California Cottonfields (D. Frazier and E. Montgomery)
TTITLE12=Pieces Of Me (T. Walton)
TTITLE13=Look At Me (D. Steiner)
EXTD=
EXTT0=
EXTT1=
EXTT2=
EXTT3=
EXTT4=
EXTT5=
EXTT6=
EXTT7=
EXTT8=
EXTT9=
EXTT10=
EXTT11=
EXTT12=
EXTT13=
PLAYORDER=
